<svg xmlns:dc="http://purl.org/dc/elements/1.1/" xmlns:cc="http://creativecommons.org/ns#" xmlns:rdf="http://www.w3.org/1999/02/22-rdf-syntax-ns#" xmlns:svg="http://www.w3.org/2000/svg" xmlns="http://www.w3.org/2000/svg" xmlns:sodipodi="http://sodipodi.sourceforge.net/DTD/sodipodi-0.dtd" xmlns:inkscape="http://www.inkscape.org/namespaces/inkscape" version="1.0" id="Layer_1" x="0px" y="0px" viewBox="0 0 55 55" enable-background="new 0 0 55 55" xml:space="preserve" inkscape:version="0.91 r13725" sodipodi:docname="SNice.svg" width="55" height="55"><metadata id="metadata4187"><rdf:RDF><cc:Work rdf:about=""><dc:format>image/svg+xml</dc:format><dc:type rdf:resource="http://purl.org/dc/dcmitype/StillImage"/><dc:title/></cc:Work></rdf:RDF></metadata><defs id="defs4185"/><sodipodi:namedview pagecolor="#ffffff" bordercolor="#666666" borderopacity="1" objecttolerance="10" gridtolerance="10" guidetolerance="10" inkscape:pageopacity="0" inkscape:pageshadow="2" inkscape:window-width="2736" inkscape:window-height="1699" id="namedview4183" showgrid="false" inkscape:zoom="12.581818" inkscape:cx="18.47086" inkscape:cy="14.978997" inkscape:window-x="-13" inkscape:window-y="-13" inkscape:window-maximized="1" inkscape:current-layer="Layer_1"/><g id="g4137"><circle stroke-miterlimit="10" cx="27.5" cy="27.5" r="26.1" id="circle4139" style="fill:#f9db2c;stroke:#000000;stroke-width:2;stroke-miterlimit:10"/><ellipse transform="matrix(0.171,-0.9853,0.9853,0.171,-7.8727,34.6436)" cx="16.6" cy="22" rx="4" ry="1.9" id="ellipse4141"/><ellipse transform="matrix(0.171,-0.9853,0.9853,0.171,2.5087,46.9815)" cx="29.200001" cy="22" rx="4" ry="1.9" id="ellipse4143"/><g id="g4145"><path stroke-miterlimit="10" d="m 41,34.2 c 0,0 -5.2,9.8 -15.9,9.6 C 14.4,43.6 8.4,32.7 8.4,32.7" id="path4147" inkscape:connector-curvature="0" style="fill:none;stroke:#000000;stroke-miterlimit:10"/><path d="m 40.5,35.1 c 0.2,0.2 3.7,-0.6 3,-1.9 -0.5,-1 -1.4,-3.1 -2.1,-3.1 -0.4,0 -0.5,1.8 -0.4,2.6 0,0.8 -1.1,1.9 -0.5,2.4 z" id="path4149" inkscape:connector-curvature="0"/><path d="M 9.2,34 C 9,34.1 6.1,33.5 6.7,32.5 c 0.5,-0.8 1.2,-2.3 1.9,-2.3 0.3,0 0.4,1.4 0.4,2 0,0.6 0.7,1.5 0.2,1.8 z" id="path4151" inkscape:connector-curvature="0"/></g></g><g id="g4153"/><g id="g4155"/><g id="g4157"/><g id="g4159"/><g id="g4161"/><g id="g4163"/><g id="g4165"/><g id="g4167"/><g id="g4169"/><g id="g4171"/><g id="g4173"/><g id="g4175"/><g id="g4177"/><g id="g4179"/><g id="g4181"/></svg>